# xmcd CD database file
#
# Track frame offsets:
#	150
#	15061
#	34733
#	54616
#	74366
#	88171
#	104757
#	118708
#	143030
#	160358
#	179037
#	198754
#	221571
#	243360
#	261818
#	277437
#	301743
#	313141
#	329079
#
# Disc length: 4677 seconds
#
# Revision: 0
# Processed by: cddbd v1.5.2PL0 Copyright (c) Steve Scherf et al.
# Submitted via: CDex 1.70beta2
#
DISCID=23124313
DTITLE=Die_Kleingeldprinzessin - Taschentoene_live
DYEAR=2004
DGENRE=Jazz
TTITLE0=Alles_Du
TTITLE1=Mittelinselurlaub
TTITLE2=Ein_Tag
TTITLE3=Mediomelo
TTITLE4=Sinceramente
TTITLE5=Immer_die_Andern
TTITLE6=Das_gemeine_Lied
TTITLE7=Frueh_am_Morgen_oertlich_Regen
TTITLE8=Selten_aber_manchmal
TTITLE9=Fensterbrett
TTITLE10=Gut_genug
TTITLE11=Ein-Mann-Zeit
TTITLE12=Menschenklone
TTITLE13=Riecht_nach_Dir
TTITLE14=Im_Rauschen_der_Welt
TTITLE15=Traumsymphonien
TTITLE16=Die_Drei
TTITLE17=Oeffentlicher_Nahverkehr
TTITLE18=Kleingeldprinzessin
EXTD=YEAR: 2004
EXTT0=
EXTT1=
EXTT2=
EXTT3=
EXTT4=
EXTT5=
EXTT6=
EXTT7=
EXTT8=
EXTT9=
EXTT10=
EXTT11=
EXTT12=
EXTT13=
EXTT14=
EXTT15=
EXTT16=
EXTT17=
EXTT18=
PLAYORDER=
